<svg width="40" height="40" viewBox="0 0 40 40" fill="none" xmlns="http://www.w3.org/2000/svg">
<circle cx="20" cy="20" r="20" fill="#D6EAFF"/>
<path d="M14.512 26.144C14.092 26.144 13.792 26 13.612 25.712C13.432 25.424 13.438 25.076 13.63 24.668L18.382 14.138C18.538 13.79 18.724 13.544 18.94 13.4C19.168 13.244 19.426 13.166 19.714 13.166C19.99 13.166 20.236 13.244 20.452 13.4C20.68 13.544 20.872 13.79 21.028 14.138L25.798 24.668C25.99 25.088 26.002 25.442 25.834 25.73C25.666 26.006 25.378 26.144 24.97 26.144C24.634 26.144 24.37 26.066 24.178 25.91C23.998 25.742 23.836 25.49 23.692 25.154L22.792 23.066H16.6L15.718 25.154C15.562 25.502 15.4 25.754 15.232 25.91C15.064 26.066 14.824 26.144 14.512 26.144ZM19.678 15.812L17.392 21.23H22L19.714 15.812H19.678Z" fill="#006790"/>
</svg>
