<svg width="40" height="40" viewBox="0 0 40 40" fill="none" xmlns="http://www.w3.org/2000/svg">
<circle cx="20" cy="20" r="20" fill="#D6EAFF"/>
<path d="M16.61 26C15.794 26 15.386 25.592 15.386 24.776V14.534C15.386 13.718 15.794 13.31 16.61 13.31H20.93C22.262 13.31 23.294 13.604 24.026 14.192C24.758 14.768 25.124 15.572 25.124 16.604C25.124 17.288 24.95 17.876 24.602 18.368C24.254 18.86 23.774 19.22 23.162 19.448C23.882 19.652 24.44 20.012 24.836 20.528C25.244 21.032 25.448 21.674 25.448 22.454C25.448 23.582 25.064 24.458 24.296 25.082C23.54 25.694 22.484 26 21.128 26H16.61ZM17.6 18.692H20.534C22.106 18.692 22.892 18.086 22.892 16.874C22.892 15.662 22.106 15.056 20.534 15.056H17.6V18.692ZM17.6 24.254H20.84C22.424 24.254 23.216 23.618 23.216 22.346C23.216 21.074 22.424 20.438 20.84 20.438H17.6V24.254Z" fill="#006790"/>
</svg>
