<svg width="40" height="40" viewBox="0 0 40 40" fill="none" xmlns="http://www.w3.org/2000/svg">
<circle cx="20" cy="20" r="20" fill="#D6EAFF"/>
<g clip-path="url(#clip0_13_601)">
<path d="M15.8789 22.0599H19.1783C19.4049 22.0599 19.5885 21.8763 19.5885 21.6497V18.3503C19.5885 18.1238 19.4049 17.9402 19.1783 17.9402H17.9388V19.2581C17.9388 19.4847 17.7551 19.6683 17.5286 19.6683C17.3021 19.6683 17.1185 19.4847 17.1185 19.2581V17.9402H15.8789C15.6524 17.9402 15.4688 18.1238 15.4688 18.3503V21.6499C15.4688 21.8763 15.6524 22.0599 15.8789 22.0599V22.0599Z" fill="#006790"/>
<path d="M22.0599 17.9402H20.8203C20.5938 17.9402 20.4102 18.1238 20.4102 18.3503V21.6499C20.4102 21.8763 20.5938 22.06 20.8203 22.06H24.1198C24.3463 22.06 24.53 21.8763 24.53 21.6499V18.3503C24.53 18.1238 24.3463 17.9402 24.1198 17.9402H22.8803V19.2581C22.8803 19.4847 22.6966 19.6683 22.4701 19.6683C22.2436 19.6683 22.06 19.4847 22.06 19.2581V17.9402H22.0599Z" fill="#006790"/>
<path d="M18.3516 17.1198H21.6511C21.8775 17.1198 22.0612 16.9361 22.0612 16.7097V13.4102C22.0612 13.1836 21.8775 13 21.6511 13H20.4114V14.3179C20.4114 14.5445 20.2278 14.7281 20.0013 14.7281C19.7747 14.7281 19.5911 14.5445 19.5911 14.3179V13H18.3516C18.125 13 17.9414 13.1836 17.9414 13.4102V16.7097C17.9414 16.9361 18.125 17.1198 18.3516 17.1198Z" fill="#006790"/>
<path d="M16.7097 22.8801H15.47V24.1981C15.47 24.4246 15.2864 24.6082 15.0599 24.6082C14.8334 24.6082 14.6497 24.4246 14.6497 24.1981V22.8801H13.4102C13.1836 22.8801 13 23.0638 13 23.2903V26.5898C13 26.8163 13.1836 27 13.4102 27H16.7097C16.9361 27 17.1198 26.8163 17.1198 26.5898V23.2903C17.1198 23.0638 16.9361 22.8801 16.7097 22.8801V22.8801Z" fill="#006790"/>
<path d="M21.651 22.8801H20.4114V24.1981C20.4114 24.4246 20.2278 24.6082 20.0013 24.6082C19.7747 24.6082 19.5911 24.4246 19.5911 24.1981V22.8801H18.3516C18.125 22.8801 17.9414 23.0638 17.9414 23.2903V26.5898C17.9414 26.8163 18.125 27 18.3516 27H21.6511C21.8775 27 22.0612 26.8163 22.0612 26.5898V23.2903C22.0611 23.0638 21.8775 22.8801 21.651 22.8801V22.8801Z" fill="#006790"/>
<path d="M26.5885 22.8801H25.3489V24.1981C25.3489 24.4246 25.1652 24.6082 24.9388 24.6082C24.7122 24.6082 24.5286 24.4246 24.5286 24.1981V22.8801H23.2891C23.0625 22.8801 22.8789 23.0638 22.8789 23.2903V26.5898C22.8789 26.8163 23.0625 27 23.2891 27H26.5885C26.815 27 26.9986 26.8163 26.9986 26.5898V23.2903C26.9986 23.0638 26.815 22.8801 26.5885 22.8801V22.8801Z" fill="#006790"/>
</g>
<defs>
<clipPath id="clip0_13_601">
<rect width="14" height="14" fill="white" transform="translate(13 13)"/>
</clipPath>
</defs>
</svg>
