<svg width="40" height="40" viewBox="0 0 40 40" fill="none" xmlns="http://www.w3.org/2000/svg">
<circle cx="20" cy="20" r="20" fill="#D6EAFF"/>
<g clip-path="url(#clip0_13_600)">
<path d="M17.9547 13.875C17.9547 14.1071 17.8625 14.3296 17.6984 14.4937C17.5343 14.6578 17.3118 14.75 17.0797 14.75H14.75V17.0797C14.75 17.3118 14.6578 17.5343 14.4937 17.6984C14.3296 17.8625 14.1071 17.9547 13.875 17.9547C13.6429 17.9547 13.4204 17.8625 13.2563 17.6984C13.0922 17.5343 13 17.3118 13 17.0797V13.875C13 13.6429 13.0922 13.4204 13.2563 13.2563C13.4204 13.0922 13.6429 13 13.875 13H17.0797C17.3118 13 17.5343 13.0922 17.6984 13.2563C17.8625 13.4204 17.9547 13.6429 17.9547 13.875V13.875ZM17.0797 25.25H14.75V22.9203C14.75 22.6882 14.6578 22.4657 14.4937 22.3016C14.3296 22.1375 14.1071 22.0453 13.875 22.0453C13.6429 22.0453 13.4204 22.1375 13.2563 22.3016C13.0922 22.4657 13 22.6882 13 22.9203V26.125C13 26.3571 13.0922 26.5796 13.2563 26.7437C13.4204 26.9078 13.6429 27 13.875 27H17.0797C17.3118 27 17.5343 26.9078 17.6984 26.7437C17.8625 26.5796 17.9547 26.3571 17.9547 26.125C17.9547 25.8929 17.8625 25.6704 17.6984 25.5063C17.5343 25.3422 17.3118 25.25 17.0797 25.25ZM26.125 22.0453C25.8929 22.0453 25.6704 22.1375 25.5063 22.3016C25.3422 22.4657 25.25 22.6882 25.25 22.9203V25.25H22.9203C22.6882 25.25 22.4657 25.3422 22.3016 25.5063C22.1375 25.6704 22.0453 25.8929 22.0453 26.125C22.0453 26.3571 22.1375 26.5796 22.3016 26.7437C22.4657 26.9078 22.6882 27 22.9203 27H26.125C26.3571 27 26.5796 26.9078 26.7437 26.7437C26.9078 26.5796 27 26.3571 27 26.125V22.9203C27 22.6882 26.9078 22.4657 26.7437 22.3016C26.5796 22.1375 26.3571 22.0453 26.125 22.0453ZM26.125 13H22.9203C22.6882 13 22.4657 13.0922 22.3016 13.2563C22.1375 13.4204 22.0453 13.6429 22.0453 13.875C22.0453 14.1071 22.1375 14.3296 22.3016 14.4937C22.4657 14.6578 22.6882 14.75 22.9203 14.75H25.25V17.0797C25.25 17.3118 25.3422 17.5343 25.5063 17.6984C25.6704 17.8625 25.8929 17.9547 26.125 17.9547C26.3571 17.9547 26.5796 17.8625 26.7437 17.6984C26.9078 17.5343 27 17.3118 27 17.0797V13.875C27 13.6429 26.9078 13.4204 26.7437 13.2563C26.5796 13.0922 26.3571 13 26.125 13V13Z" fill="#006790"/>
</g>
<defs>
<clipPath id="clip0_13_600">
<rect width="14" height="14" fill="white" transform="translate(13 13)"/>
</clipPath>
</defs>
</svg>
