<svg width="130" height="60" viewBox="0 0 130 60" fill="none" xmlns="http://www.w3.org/2000/svg">
<g clip-path="url(#clip0_7_1861)">
<path fill-rule="evenodd" clip-rule="evenodd" d="M81.5634 10.098L80.5145 13.6078C80.4251 13.967 80.4769 14.3469 80.6592 14.6691C80.8415 14.9913 81.1405 15.2312 81.4945 15.3395C81.8485 15.4478 82.2306 15.4162 82.562 15.2512C82.8934 15.0862 83.1489 14.8004 83.2758 14.4526L84.0299 11.9862H94.7575L100.428 19.5896L97.74 28.8091H96.1523C95.7689 28.8091 95.4011 28.9614 95.13 29.2325C94.8588 29.5037 94.7065 29.8715 94.7065 30.2549C94.7065 30.6384 94.8588 31.0061 95.13 31.2773C95.4011 31.5484 95.7689 31.7008 96.1523 31.7008H98.8229C99.1382 31.6938 99.4427 31.5844 99.6903 31.389C99.9379 31.1936 100.115 30.9229 100.195 30.6178L103.387 19.669C103.449 19.4549 103.46 19.2297 103.421 19.0105C103.381 18.7913 103.292 18.584 103.16 18.4046L96.623 9.63878C96.4903 9.46338 96.319 9.32096 96.1223 9.22261C95.9256 9.12427 95.7089 9.07265 95.489 9.07178H82.9412C82.6325 9.07175 82.332 9.17093 82.0839 9.35469C81.8358 9.53845 81.6534 9.79705 81.5634 10.0924" fill="#FEFEFE"/>
<path fill-rule="evenodd" clip-rule="evenodd" d="M80.6107 28.7866H57.5054C57.122 28.7866 56.7542 28.939 56.483 29.2101C56.2119 29.4812 56.0596 29.849 56.0596 30.2325C56.0596 30.6159 56.2119 30.9837 56.483 31.2548C56.7542 31.526 57.122 31.6783 57.5054 31.6783H80.6107C80.9942 31.6783 81.3619 31.526 81.6331 31.2548C81.9042 30.9837 82.0565 30.6159 82.0565 30.2325C82.0565 29.849 81.9042 29.4812 81.6331 29.2101C81.3619 28.939 80.9942 28.7866 80.6107 28.7866Z" fill="#FEFEFE"/>
<path fill-rule="evenodd" clip-rule="evenodd" d="M83.6213 30.2327C82.8388 32.7899 84.279 34.8594 86.8305 34.8594C89.382 34.8594 92.0923 32.7899 92.8747 30.2327C93.6572 27.6755 92.217 25.606 89.6599 25.606C87.1027 25.606 84.3981 27.6755 83.6213 30.2327ZM90.0681 30.2327C89.8978 30.7378 89.5809 31.1807 89.1577 31.5049C88.7346 31.8291 88.2244 32.0198 87.6924 32.0528C87.4708 32.0642 87.2499 32.019 87.0507 31.9213C86.8515 31.8236 86.6805 31.6767 86.5539 31.4944C86.4273 31.3122 86.3493 31.1007 86.3272 30.8799C86.3052 30.6591 86.3399 30.4363 86.4279 30.2327C86.5978 29.7278 86.9148 29.2853 87.3382 28.9619C87.7615 28.6386 88.2719 28.4493 88.8037 28.4183C89.0251 28.4057 89.246 28.45 89.4454 28.5469C89.6448 28.6439 89.816 28.7903 89.9428 28.9722C90.0695 29.1542 90.1476 29.3655 90.1696 29.5861C90.1915 29.8068 90.1566 30.0294 90.0681 30.2327Z" fill="#FEFEFE"/>
<path fill-rule="evenodd" clip-rule="evenodd" d="M44.793 30.2327C44.0162 32.7899 45.4507 34.8594 48.0079 34.8594C50.5651 34.8594 53.2697 32.7899 54.0465 30.2327C54.8232 27.6755 53.3944 25.606 50.8372 25.606C48.2801 25.606 45.5528 27.6755 44.793 30.2327ZM51.2398 30.2327C51.0709 30.7386 50.7543 31.1824 50.3308 31.5068C49.9074 31.8312 49.3965 32.0213 48.8641 32.0528C48.6424 32.0648 48.4214 32.0199 48.2221 31.9222C48.0228 31.8245 47.8519 31.6774 47.7256 31.4948C47.5994 31.3122 47.522 31.1004 47.5009 30.8794C47.4799 30.6585 47.5158 30.4358 47.6053 30.2327C47.7745 29.7274 48.0913 29.2844 48.5148 28.961C48.9383 28.6376 49.449 28.4485 49.9811 28.4183C50.2006 28.4092 50.4188 28.4561 50.6152 28.5548C50.8115 28.6534 50.9795 28.8005 51.1032 28.9821C51.2269 29.1637 51.3023 29.3738 51.3222 29.5926C51.3421 29.8114 51.306 30.0317 51.2171 30.2327H51.2398Z" fill="#FEFEFE"/>
<path fill-rule="evenodd" clip-rule="evenodd" d="M46.8061 2.88603H83.7519L83.0261 5.26744C82.9367 5.62668 82.9885 6.00654 83.1709 6.32872C83.3532 6.65091 83.6522 6.89088 84.0062 6.99919C84.3602 7.1075 84.7423 7.0759 85.0737 6.91089C85.405 6.74588 85.6605 6.46004 85.7874 6.11227L87.0859 1.86543C87.1535 1.64684 87.1688 1.41539 87.1304 1.18981C87.092 0.964228 87.001 0.750867 86.8647 0.567001C86.7315 0.392237 86.56 0.250279 86.3635 0.152C86.1669 0.0537215 85.9505 0.00172785 85.7307 8.64716e-07H45.7402C45.4307 -0.000337486 45.1293 0.098626 44.8803 0.28234C44.6312 0.466054 44.4477 0.724824 44.3567 1.0206L41.3232 10.9488H44.3397L46.8061 2.88603Z" fill="#FEFEFE"/>
<path fill-rule="evenodd" clip-rule="evenodd" d="M42.8827 30.2326C42.8827 29.8492 42.7304 29.4814 42.4592 29.2102C42.1881 28.9391 41.8203 28.7868 41.4368 28.7868H38.891L43.461 13.835H40.4389L39.6338 16.4715H34.0715C33.8744 16.4592 33.6768 16.4873 33.491 16.5542C33.3052 16.6212 33.1351 16.7254 32.9912 16.8606C32.8472 16.9959 32.7325 17.1591 32.654 17.3404C32.5756 17.5216 32.5352 17.717 32.5352 17.9145C32.5352 18.112 32.5756 18.3074 32.654 18.4887C32.7325 18.6699 32.8472 18.8332 32.9912 18.9684C33.1351 19.1036 33.3052 19.2079 33.491 19.2748C33.6768 19.3418 33.8744 19.3699 34.0715 19.3575H38.7493L35.557 29.813C35.49 30.0286 35.4746 30.2568 35.512 30.4794C35.5495 30.702 35.6387 30.9127 35.7725 31.0945C35.9074 31.2674 36.0793 31.408 36.2754 31.5061C36.4716 31.6042 36.6872 31.6573 36.9065 31.6615H41.4085C41.792 31.6615 42.1597 31.5091 42.4309 31.238C42.702 30.9668 42.8543 30.5991 42.8543 30.2156" fill="#FEFEFE"/>
<path fill-rule="evenodd" clip-rule="evenodd" d="M10.8807 43.3644C10.4094 43.0286 9.87825 42.7861 9.31582 42.65C8.62216 42.4923 7.91217 42.4181 7.20091 42.4288H4.81383C4.46145 42.4142 4.1087 42.4466 3.76488 42.5252C3.50284 42.5993 3.26067 42.731 3.05613 42.9108C2.85182 43.0976 2.68948 43.3256 2.57985 43.5798C2.44329 43.8975 2.33882 44.228 2.268 44.5664L0.11907 53.8652C0.0425892 54.1616 0.00260303 54.4663 4.22147e-10 54.7724C-6.07605e-06 54.9766 0.0655874 55.1754 0.18711 55.3394C0.333957 55.5073 0.534212 55.6195 0.754111 55.6569C1.0638 55.7346 1.38173 55.7746 1.701 55.776H4.4226C5.37018 55.7841 6.31141 55.6208 7.20091 55.2941C8.05431 54.984 8.84402 54.521 9.53128 53.9276C10.2309 53.3138 10.823 52.5875 11.2833 51.7787C11.781 50.8917 12.1459 49.9365 12.3663 48.9437C12.6416 47.8686 12.6416 46.7415 12.3663 45.6664C12.1414 44.7489 11.6165 43.9327 10.8751 43.3474L10.8807 43.3644ZM22.9692 46.9421C22.6437 46.5104 22.2199 46.1625 21.7331 45.9272C21.166 45.6544 20.5422 45.5203 19.9131 45.536C19.2164 45.5342 18.5264 45.671 17.8832 45.9386C17.2251 46.2139 16.6176 46.5971 16.0858 47.0726C15.5299 47.5615 15.0553 48.1356 14.6796 48.7736C14.2834 49.4264 13.9943 50.1385 13.8235 50.8828C13.6552 51.5672 13.6224 52.278 13.7271 52.975C13.8183 53.5741 14.0495 54.1433 14.4018 54.6363C14.7509 55.1044 15.2107 55.4785 15.7399 55.725C16.3322 55.9948 16.9773 56.1285 17.628 56.1162C18.2326 56.1195 18.8351 56.0432 19.4198 55.8894C19.9434 55.7614 20.4497 55.5711 20.928 55.3224C21.337 55.0846 21.7062 54.7842 22.0223 54.4322C22.2765 54.1954 22.4608 53.8934 22.5553 53.559C22.5981 53.4206 22.6091 53.2742 22.5875 53.1309C22.5659 52.9876 22.5122 52.8509 22.4305 52.7312C22.3371 52.6201 22.2182 52.5332 22.0839 52.4779C21.9496 52.4227 21.804 52.4006 21.6594 52.4137C21.4619 52.4254 21.269 52.4775 21.0924 52.5668L20.344 52.8957C20.0513 53.0209 19.7523 53.1307 19.4481 53.2245C19.1131 53.3235 18.7655 53.3731 18.4162 53.3719C17.8986 53.4076 17.3872 53.2432 16.9873 52.9127C16.8193 52.7447 16.6961 52.5374 16.6287 52.3096C16.5614 52.0819 16.5521 51.8408 16.6018 51.6086H21.8125C22.0288 51.6098 22.2449 51.5947 22.4589 51.5632C22.6334 51.5347 22.8008 51.4731 22.9522 51.3818C23.0978 51.292 23.2186 51.1672 23.3037 51.0189C23.4065 50.8265 23.481 50.6202 23.5249 50.4065C23.6761 49.7887 23.705 49.1473 23.6099 48.5184C23.5202 47.957 23.3029 47.4235 22.9749 46.9592L22.9692 46.9421ZM20.8373 49.6581H17.01C17.21 49.1426 17.5497 48.6929 17.9909 48.3596C18.386 48.0556 18.8702 47.8902 19.3687 47.889C19.5824 47.8831 19.7947 47.9242 19.9907 48.0094C20.1866 48.0947 20.3615 48.222 20.5027 48.3823C20.6569 48.556 20.768 48.7635 20.8271 48.9881C20.8862 49.2127 20.8916 49.448 20.8429 49.6751L20.8373 49.6581ZM29.3139 41.4479C28.35 41.4479 27.698 42.1737 27.3691 43.6082L25.0274 53.7462C24.691 55.1863 25.0085 55.9064 25.98 55.9064C26.213 55.9181 26.4457 55.8761 26.66 55.7837C26.8743 55.6913 27.0645 55.5509 27.216 55.3734C27.5822 54.8967 27.8273 54.3383 27.9304 53.7462L30.2722 43.6082C30.5935 42.1718 30.274 41.4517 29.3139 41.4479ZM34.3489 45.6551C33.3812 45.6551 32.7329 46.3695 32.4041 47.7983L31.0319 53.7462C30.6993 55.1863 31.0168 55.9064 31.9845 55.9064C32.2138 55.9146 32.442 55.8709 32.6521 55.7786C32.8622 55.6863 33.0487 55.5478 33.1979 55.3734C33.564 54.8967 33.8092 54.3383 33.9123 53.7462L35.2901 47.7983C35.619 46.3695 35.3015 45.6551 34.3489 45.6551ZM35.3185 41.4479C34.8388 41.4583 34.3784 41.6392 34.02 41.9582C33.6348 42.2643 33.3649 42.6921 33.2546 43.1716C33.1955 43.3731 33.1826 43.5853 33.217 43.7925C33.2513 43.9996 33.332 44.1963 33.453 44.368C33.5752 44.5332 33.7367 44.6653 33.9228 44.7525C34.1089 44.8396 34.3138 44.8789 34.519 44.8669C34.7519 44.8659 34.9826 44.8217 35.1994 44.7365C35.4235 44.6504 35.6308 44.5257 35.8118 44.368C35.9985 44.2059 36.1575 44.0144 36.2824 43.801C36.4181 43.5998 36.5143 43.3747 36.5659 43.1376C36.6227 42.9393 36.6355 42.7309 36.6031 42.5271C36.5708 42.3234 36.4942 42.1292 36.3788 41.9582C36.2576 41.7925 36.0975 41.6592 35.9126 41.5702C35.7276 41.4812 35.5235 41.4392 35.3185 41.4479ZM45.1106 45.6551C44.4472 45.6551 43.9029 46.0746 43.4606 46.9138L40.6709 52.2436L40.257 47.1009C40.2537 46.7157 40.1438 46.3389 39.9395 46.0123C39.841 45.8928 39.7157 45.7983 39.5739 45.7362C39.4321 45.6742 39.2776 45.6464 39.123 45.6551C38.7204 45.6592 38.3332 45.8105 38.0344 46.0803C37.7098 46.3449 37.4824 46.7099 37.388 47.1179C37.3393 47.386 37.3393 47.6606 37.388 47.9287L38.3916 54.4776C38.4326 54.8799 38.5644 55.2677 38.7772 55.6116C38.8995 55.7539 39.0552 55.8636 39.2304 55.9309C39.4055 55.9981 39.5946 56.0209 39.7808 55.9971C40.1908 56.0151 40.5936 55.8842 40.9148 55.6286C41.2571 55.3187 41.5463 54.9548 41.7709 54.5513L45.7059 48.0932C45.9044 47.7937 46.0537 47.4645 46.1482 47.1179C46.2035 46.9402 46.2204 46.7528 46.198 46.5681C46.1755 46.3834 46.1141 46.2055 46.0178 46.0463C45.9131 45.9084 45.7746 45.7999 45.6156 45.7313C45.4567 45.6628 45.2827 45.6365 45.1106 45.6551ZM55.6284 46.9592C55.3003 46.5212 54.8727 46.1675 54.381 45.9272C53.8156 45.6552 53.1938 45.5212 52.5666 45.536C51.8682 45.5342 51.1763 45.671 50.5311 45.9386C49.8737 46.2152 49.2664 46.5983 48.7337 47.0726C48.1794 47.563 47.7049 48.1369 47.3275 48.7736C46.9445 49.402 46.6632 50.0871 46.494 50.8034C46.3212 51.4871 46.2865 52.1984 46.392 52.8957C46.4841 53.4935 46.7131 54.0621 47.061 54.557C47.4114 55.0237 47.8709 55.3975 48.3992 55.6456C48.9932 55.9159 49.6404 56.0496 50.2929 56.0368C50.8957 56.0407 51.4963 55.9644 52.079 55.81C52.6029 55.683 53.1094 55.4926 53.5872 55.243C53.9867 55.0284 54.3518 54.7551 54.6702 54.4322C54.9244 54.1954 55.1087 53.8934 55.2032 53.559C55.2468 53.421 55.2587 53.2749 55.2381 53.1315C55.2175 52.9882 55.1648 52.8514 55.0841 52.7312C54.9897 52.6212 54.8707 52.5351 54.7367 52.4799C54.6026 52.4247 54.4574 52.402 54.313 52.4137C54.1059 52.4215 53.9028 52.4737 53.7176 52.5668L52.9692 52.8957C52.6785 53.021 52.3814 53.1308 52.079 53.2245C51.7421 53.3238 51.3926 53.3735 51.0414 53.3719C50.5238 53.4076 50.0124 53.2432 49.6125 52.9127C49.4471 52.743 49.3255 52.5356 49.2583 52.3083C49.1911 52.0811 49.1804 51.8409 49.227 51.6086H54.432C54.6483 51.6096 54.8644 51.5945 55.0784 51.5632C55.2511 51.5346 55.4167 51.473 55.5661 51.3818C55.7116 51.292 55.8325 51.1672 55.9176 51.0189C56.0184 50.8261 56.091 50.6199 56.133 50.4065C56.286 49.7891 56.3168 49.1477 56.2238 48.5184C56.146 47.9603 55.9424 47.4271 55.6284 46.9592ZM53.4908 49.6751H49.6749C49.871 49.1589 50.2091 48.7088 50.6502 48.3767C51.0464 48.0749 51.5299 47.9097 52.028 47.906C52.2416 47.9001 52.4539 47.9412 52.6499 48.0264C52.8459 48.1117 53.0207 48.239 53.162 48.3993C53.3116 48.5721 53.4191 48.7773 53.4762 48.9986C53.5333 49.2199 53.5383 49.4515 53.4908 49.6751ZM65.3978 47.0612C65.4463 46.8855 65.4537 46.701 65.4193 46.522C65.3848 46.3431 65.3096 46.1744 65.1994 46.0293C65.0885 45.8887 64.946 45.7764 64.7834 45.7015C64.6208 45.6266 64.4427 45.5912 64.2638 45.5984C63.4359 45.6551 62.6565 46.0096 62.0695 46.5963C62.0236 46.33 61.8842 46.0889 61.6763 45.9163C61.4684 45.7438 61.2057 45.6511 60.9355 45.6551C59.9716 45.6551 59.3196 46.3695 58.9907 47.7983L57.6186 53.7462C57.2822 55.1863 57.5997 55.9064 58.5712 55.9064C59.5407 55.9064 60.1871 55.1863 60.5216 53.7462L61.2304 50.6673C61.2871 50.4179 61.3495 50.2024 61.4062 50.021C61.4611 49.8549 61.5373 49.6967 61.633 49.5503C61.7311 49.4172 61.8498 49.3005 61.9845 49.2045C62.1617 49.0835 62.3519 48.9827 62.5515 48.904C62.8747 48.7679 63.1979 48.6488 63.5154 48.5468C63.8089 48.4541 64.0966 48.3443 64.3772 48.2179C64.6238 48.1096 64.85 47.96 65.0463 47.7756C65.2295 47.5768 65.3498 47.3282 65.3922 47.0612H65.3978ZM73.9482 45.6551C73.6565 45.6502 73.372 45.7463 73.1431 45.9272C72.8517 46.1851 72.6029 46.4875 72.406 46.8231L69.5369 51.5348L68.9303 47.0612C68.8932 46.6907 68.7855 46.3308 68.6127 46.0009C68.5221 45.8706 68.3977 45.7674 68.2529 45.7024C68.108 45.6375 67.9482 45.6133 67.7906 45.6324C67.3849 45.6384 66.9948 45.7892 66.6906 46.0576C66.3626 46.3202 66.1329 46.6858 66.0386 47.0952C66.007 47.2293 65.988 47.3659 65.9818 47.5035C65.9619 47.6426 65.9619 47.7839 65.9818 47.9231L67.2973 54.8915L65.4886 57.5337C65.2709 57.8404 65.1114 58.1844 65.0179 58.5486C64.9613 58.7217 64.9441 58.9052 64.9676 59.0857C64.9912 59.2663 65.0549 59.4392 65.154 59.5919C65.2724 59.7283 65.4216 59.8344 65.5893 59.9015C65.7569 59.9685 65.9382 59.9946 66.1179 59.9775C66.4257 59.983 66.7232 59.8669 66.9457 59.6543C67.2204 59.3915 67.4622 59.0964 67.6658 58.7754L74.5436 48.0761C74.7555 47.7573 74.9162 47.4071 75.0198 47.0385C75.0764 46.8668 75.0926 46.6843 75.067 46.5053C75.0414 46.3263 74.9748 46.1556 74.8724 46.0066C74.7543 45.8812 74.6092 45.7844 74.4481 45.7235C74.2869 45.6626 74.1141 45.6392 73.9425 45.6551H73.9482ZM92.4891 43.8463C92.7046 42.8975 92.1092 42.425 90.7031 42.4288H85.5264C84.1202 42.4288 83.3037 42.8994 83.0882 43.8463C82.8728 44.7932 83.4681 45.2411 84.8743 45.2411H85.98L84.0068 53.7802C83.6723 55.2204 84.0068 55.9461 84.9934 55.9461C85.9799 55.9461 86.649 55.2204 86.9836 53.7802L88.951 45.2411H90.051C91.461 45.2411 92.2718 44.7762 92.4835 43.8463H92.4891ZM97.0762 45.5984C96.2482 45.6551 95.4688 46.0096 94.8819 46.5963C94.836 46.33 94.6965 46.0889 94.4886 45.9163C94.2807 45.7438 94.018 45.6511 93.7479 45.6551C92.7802 45.6551 92.1319 46.3695 91.8031 47.7983L90.4252 53.7462C90.0964 55.1863 90.4139 55.9064 91.3778 55.9064C92.3474 55.9064 92.9938 55.1863 93.3283 53.7462L94.0427 50.6673C94.0899 50.449 94.1486 50.2332 94.2185 50.021C94.271 49.854 94.3474 49.6955 94.4453 49.5503C94.5398 49.416 94.6568 49.299 94.7911 49.2045C94.9691 49.0847 95.1591 48.984 95.3581 48.904C95.6813 48.7679 96.0045 48.6488 96.3221 48.5468C96.6174 48.4541 96.9071 48.3443 97.1896 48.2179C97.4353 48.1081 97.6613 47.9587 97.8586 47.7756C98.0421 47.577 98.1624 47.3283 98.2045 47.0612C98.2538 46.886 98.262 46.7017 98.2286 46.5227C98.1952 46.3438 98.1209 46.1749 98.0117 46.0293C97.9003 45.8879 97.7568 45.7751 97.5931 45.7001C97.4295 45.6252 97.2503 45.5903 97.0705 45.5984H97.0762ZM107.809 45.6551C107.488 45.6749 107.177 45.7705 106.9 45.9341C106.623 46.0978 106.389 46.3247 106.216 46.5963C106.002 46.2454 105.695 45.9609 105.328 45.7747C104.962 45.5884 104.551 45.5078 104.141 45.5417C103.511 45.5447 102.889 45.6799 102.315 45.9386C101.693 46.2095 101.119 46.579 100.614 47.0329C100.084 47.5176 99.6274 48.0773 99.2591 48.6942C98.8698 49.3404 98.5865 50.0449 98.42 50.7807C98.2448 51.4732 98.1968 52.1917 98.2782 52.9013C98.344 53.488 98.5376 54.0531 98.8452 54.557C99.1239 55.005 99.5148 55.3725 99.9792 55.6229C100.471 55.8774 101.018 56.0078 101.572 56.0028C102.073 56.0021 102.569 55.9014 103.031 55.7067C103.492 55.512 103.91 55.2271 104.26 54.8688C104.286 55.1515 104.416 55.4144 104.626 55.6055C104.836 55.7965 105.11 55.9019 105.394 55.9008C106.352 55.9008 106.993 55.1807 107.328 53.7405L108.7 47.7926C108.87 47.2692 108.882 46.7069 108.734 46.1767C108.65 46.0054 108.517 45.8637 108.35 45.7704C108.184 45.6772 107.993 45.637 107.804 45.6551H107.809ZM105.162 50.7581C105.031 51.4291 104.708 52.0477 104.232 52.5384C104.041 52.7426 103.811 52.9065 103.556 53.0204C103.301 53.1344 103.026 53.1961 102.746 53.2018C102.507 53.2142 102.269 53.1598 102.058 53.0447C101.848 52.9295 101.674 52.7582 101.555 52.5498C101.289 51.9896 101.246 51.3486 101.436 50.7581C101.564 50.0922 101.895 49.4823 102.383 49.0117C102.775 48.6157 103.306 48.3879 103.863 48.3767C104.098 48.3655 104.331 48.4194 104.537 48.5324C104.744 48.6455 104.914 48.8133 105.031 49.0174C105.295 49.5539 105.34 50.1721 105.156 50.741L105.162 50.7581ZM117.573 45.6154C117.06 45.6067 116.548 45.6833 116.059 45.8422C115.587 46.0089 115.155 46.2714 114.789 46.6133C114.743 46.3421 114.599 46.0971 114.385 45.9239C114.171 45.7507 113.902 45.6612 113.627 45.6721C112.663 45.6721 112.011 46.3865 111.682 47.8153L110.31 53.7632C109.974 55.2033 110.291 55.9234 111.263 55.9234C112.232 55.9234 112.878 55.2033 113.213 53.7632L113.99 50.3612C114.103 49.7434 114.359 49.1607 114.738 48.6602C114.901 48.4735 115.104 48.3257 115.332 48.2276C115.559 48.1295 115.806 48.0836 116.054 48.0932C116.621 48.0932 117.006 48.2803 117.148 48.6602C117.287 49.2332 117.265 49.8336 117.086 50.3952L116.314 53.7348C115.98 55.175 116.314 55.8951 117.267 55.8951C118.22 55.8951 118.883 55.175 119.218 53.7348L120.204 49.505C120.499 48.216 120.42 47.2427 119.966 46.5849C119.501 45.9272 118.707 45.5984 117.568 45.5984L117.573 45.6154ZM129.883 46.8117C129.756 46.5458 129.56 46.3187 129.316 46.154C129.025 45.9405 128.699 45.7811 128.352 45.6834C127.917 45.5571 127.466 45.4959 127.014 45.502C126.495 45.4991 125.979 45.5854 125.489 45.7571C125.023 45.918 124.585 46.1494 124.19 46.4432C123.81 46.7263 123.479 47.069 123.209 47.4581C122.943 47.8304 122.751 48.2499 122.642 48.6942C122.553 49.0306 122.533 49.3819 122.586 49.7261C122.642 50.0119 122.762 50.2813 122.937 50.5142C123.134 50.7698 123.376 50.987 123.651 51.155C123.99 51.364 124.34 51.5533 124.7 51.722C125.177 51.9374 125.528 52.1132 125.761 52.2493C125.866 52.2956 125.951 52.3785 126 52.4828C126.049 52.587 126.059 52.7055 126.027 52.8163C125.98 52.9935 125.866 53.1458 125.71 53.2415C125.523 53.3628 125.303 53.4242 125.08 53.4173C124.86 53.4189 124.642 53.3745 124.44 53.2869C124.233 53.1993 124.032 53.0989 123.839 52.9864C123.645 52.8738 123.444 52.7735 123.238 52.6859C123.035 52.6004 122.817 52.5561 122.597 52.5555C122.268 52.5658 121.957 52.7042 121.729 52.941C121.474 53.1928 121.299 53.5143 121.225 53.8652C121.152 54.1494 121.172 54.4493 121.281 54.7214C121.403 54.9999 121.599 55.2394 121.848 55.4131C122.159 55.6275 122.504 55.7867 122.869 55.8837C123.883 56.1442 124.95 56.1148 125.948 55.7987C126.451 55.6337 126.926 55.3907 127.354 55.0786C127.759 54.7816 128.111 54.4194 128.397 54.007C128.669 53.6068 128.861 53.1584 128.964 52.6859C129.054 52.404 129.082 52.106 129.046 51.8123C129.01 51.5187 128.91 51.2364 128.754 50.9849C128.355 50.46 127.828 50.0462 127.224 49.7828C126.946 49.6467 126.702 49.5333 126.475 49.4426C126.281 49.3684 126.091 49.2813 125.908 49.1818C125.775 49.1182 125.659 49.0251 125.568 48.9096C125.532 48.8606 125.508 48.8036 125.498 48.7435C125.488 48.6834 125.493 48.6218 125.511 48.5638C125.528 48.4903 125.559 48.4208 125.603 48.3595C125.647 48.2981 125.702 48.2461 125.766 48.2066C125.919 48.1006 126.102 48.0469 126.288 48.0535C126.483 48.0543 126.675 48.0928 126.855 48.1669C127.042 48.2406 127.224 48.3256 127.422 48.4107C127.62 48.4957 127.785 48.5808 127.955 48.6545C128.118 48.7265 128.293 48.7651 128.471 48.7679C128.814 48.7632 129.143 48.6366 129.401 48.4107C129.683 48.1896 129.883 47.8801 129.968 47.5318C130.021 47.2829 129.989 47.0233 129.877 46.7947L129.883 46.8117ZM9.13438 48.9323C8.50501 51.5972 7.01947 52.958 4.66074 52.958H3.29994L5.103 45.2411H6.40711C8.79607 45.2411 9.70516 46.4715 9.13438 48.9323Z" fill="#FEFEFE"/>
<path fill-rule="evenodd" clip-rule="evenodd" d="M64.6379 13.835L57.5958 18.0422C57.3238 18.2044 57.1126 18.4515 56.9946 18.7454C56.8767 19.0393 56.8585 19.3638 56.9428 19.6691C57.0272 19.9743 57.2095 20.2434 57.4616 20.4351C57.7138 20.6267 58.0219 20.7302 58.3386 20.7298H95.4941C95.8776 20.7298 96.2453 20.5774 96.5165 20.3063C96.7876 20.0351 96.94 19.6674 96.94 19.2839C96.94 18.9005 96.7876 18.5327 96.5165 18.2615C96.2453 17.9904 95.8776 17.8381 95.4941 17.8381H63.572L70.6198 13.6082C70.8933 13.4476 71.1062 13.2011 71.2252 12.907C71.3443 12.6129 71.363 12.2878 71.2783 11.9821C71.1936 11.6763 71.0104 11.4071 70.757 11.2162C70.5036 11.0253 70.1943 10.9234 69.877 10.9263H27.0741C26.2747 10.9263 24.9082 11.5727 24.9082 12.3722C24.9082 13.1717 26.2747 13.8124 27.0741 13.8124H64.6379V13.835Z" fill="#FFD200"/>
</g>
<defs>
<clipPath id="clip0_7_1861">
<rect width="129.985" height="60" fill="white"/>
</clipPath>
</defs>
</svg>
