<svg width="40" height="40" viewBox="0 0 40 40" fill="none" xmlns="http://www.w3.org/2000/svg">
<circle cx="20" cy="20" r="20" fill="#D6EAFF"/>
<path d="M17.042 26.144C16.262 26.144 15.872 25.736 15.872 24.92V23.498H15.062C14.486 23.498 14.198 23.234 14.198 22.706C14.198 22.178 14.486 21.914 15.062 21.914H15.872V20.69H15.062C14.486 20.69 14.198 20.426 14.198 19.898C14.198 19.37 14.486 19.106 15.062 19.106H15.872V14.462C15.872 13.694 16.256 13.31 17.024 13.31H20.174C21.566 13.31 22.628 13.658 23.36 14.354C24.104 15.038 24.476 15.944 24.476 17.072C24.476 18.164 24.104 19.04 23.36 19.7C22.616 20.36 21.584 20.69 20.264 20.69H18.212V21.914H20.372C20.948 21.914 21.236 22.178 21.236 22.706C21.236 23.234 20.948 23.498 20.372 23.498H18.212V24.92C18.212 25.736 17.822 26.144 17.042 26.144ZM18.176 19.106H19.886C20.642 19.106 21.224 18.962 21.632 18.674C22.04 18.386 22.244 17.906 22.244 17.234C22.244 16.562 22.04 16.064 21.632 15.74C21.236 15.416 20.654 15.254 19.886 15.254H18.176V19.106Z" fill="#006790"/>
</svg>
