<svg width="40" height="40" viewBox="0 0 40 40" fill="none" xmlns="http://www.w3.org/2000/svg">
<circle cx="20" cy="20" r="20" fill="#D6EAFF"/>
<g clip-path="url(#clip0_13_599)">
<path d="M19.0454 20.0656L13.9364 17.289C13.7091 17.1656 13.4407 17.1707 13.2184 17.3029C12.996 17.435 12.8633 17.6684 12.8633 17.9271V24.3682C12.8633 24.6288 13.004 24.8707 13.2306 24.9995L18.3397 27.904C18.4523 27.9681 18.5755 28 18.6987 28C18.8242 28 18.9497 27.9668 19.0639 27.9004C19.2899 27.7689 19.4248 27.5342 19.4248 27.2727V20.7037C19.4248 20.4374 19.2795 20.1928 19.0454 20.0656V20.0656Z" fill="#006790"/>
<path d="M26.2123 15.6136C26.212 15.3416 26.0617 15.095 25.8203 14.9698L20.2491 12.0815C20.0381 11.9721 19.7867 11.9729 19.5766 12.0835L14.0872 14.9719C13.8482 15.0977 13.6996 15.3436 13.6992 15.6137C13.6989 15.8838 13.847 16.13 14.0856 16.2564L19.575 19.1628C19.6813 19.219 19.798 19.2471 19.9147 19.2471C20.03 19.2471 20.1454 19.2197 20.2506 19.1648L25.822 16.2584C26.0631 16.1327 26.2127 15.8856 26.2123 15.6136V15.6136Z" fill="#006790"/>
<path d="M26.7846 17.3029C26.5624 17.1707 26.2939 17.1655 26.0667 17.289L20.9575 20.0657C20.7235 20.1929 20.5781 20.4374 20.5781 20.7037V27.2727C20.5781 27.5342 20.7131 27.7689 20.9391 27.9004C21.0532 27.9668 21.1787 28 21.3043 28C21.4274 28 21.5507 27.968 21.6633 27.904L26.7724 24.9995C26.999 24.8707 27.1397 24.6288 27.1397 24.3682V17.9271C27.1397 17.6684 27.007 17.4351 26.7846 17.3029V17.3029Z" fill="#006790"/>
</g>
<defs>
<clipPath id="clip0_13_599">
<rect width="16" height="16" fill="white" transform="translate(12 12)"/>
</clipPath>
</defs>
</svg>
