<svg width="40" height="40" viewBox="0 0 40 40" fill="none" xmlns="http://www.w3.org/2000/svg">
<circle cx="20" cy="20" r="20" fill="#D6EAFF"/>
<g clip-path="url(#clip0_13_598)">
<path d="M26.6919 25.3299L25.4697 18.0288C25.3548 17.3404 24.7586 16.8372 24.0608 16.8372H22.2245C22.4398 16.4621 22.5629 16.0275 22.5629 15.5647C22.5629 14.1506 21.4126 13 19.9982 13C18.5841 13 17.4335 14.1506 17.4335 15.5647C17.4335 16.0275 17.5566 16.4621 17.7719 16.8372H15.9356C15.2375 16.8372 14.6416 17.341 14.5267 18.0294L13.3048 25.3314C13.2353 25.7454 13.3521 26.1715 13.6235 26.4917C13.8953 26.8123 14.2937 27 14.7141 27H25.2835C25.7038 27 26.1023 26.8123 26.3741 26.4917C26.6452 26.1709 26.7616 25.7442 26.6919 25.3299ZM19.9985 14.4942C20.5887 14.4942 21.069 14.9746 21.069 15.565C21.069 16.1555 20.5887 16.6356 19.9985 16.6356C19.408 16.6356 18.9277 16.1552 18.9277 15.5647C18.9277 14.9743 19.408 14.4942 19.9985 14.4942Z" fill="#006790"/>
</g>
<defs>
<clipPath id="clip0_13_598">
<rect width="14" height="14" fill="white" transform="translate(13 13)"/>
</clipPath>
</defs>
</svg>
